<svg id="Capa_1" data-name="Capa 1" xmlns="http://www.w3.org/2000/svg" viewBox="0 0 56 60"><defs><style>.cls-1{fill:none;}.cls-2{fill:#2c7656;}.cls-3{fill:#d8d8d8;}</style></defs><title>calendar high</title><path class="cls-1" d="M57,4H50V1a1,1,0,0,0-1-1H42a1,1,0,0,0-1,1V4H19V1a1,1,0,0,0-1-1H11a1,1,0,0,0-1,1V4H3A1,1,0,0,0,2,5V59a1,1,0,0,0,1,1H57a1,1,0,0,0,1-1V5A1,1,0,0,0,57,4Z" transform="translate(-2)"/><polygon class="cls-2" points="41 2 46 2 46 5 46 8 41 8 41 5 41 2"/><polygon class="cls-2" points="10 2 15 2 15 5 15 8 10 8 10 5 10 2"/><path class="cls-2" d="M4,6h6V9a1,1,0,0,0,1,1h7a1,1,0,0,0,1-1V6H41V9a1,1,0,0,0,1,1h7a1,1,0,0,0,1-1V6h6v9H4Z" transform="translate(-2)"/><rect class="cls-2" x="2" y="17" width="52" height="41"/><polygon class="cls-3" points="36 23 29 23 27 23 20 23 18 23 9 23 9 32 9 34 9 41 9 43 9 52 18 52 20 52 27 52 29 52 36 52 38 52 47 52 47 43 47 41 47 34 47 32 47 23 38 23 36 23"/><rect class="cls-2" x="29" y="25" width="7" height="7"/><rect class="cls-2" x="29" y="34" width="7" height="7"/><rect class="cls-2" x="20" y="34" width="7" height="7"/><rect class="cls-2" x="20" y="25" width="7" height="7"/><rect class="cls-2" x="11" y="25" width="7" height="7"/><rect class="cls-2" x="11" y="34" width="7" height="7"/><rect class="cls-2" x="11" y="43" width="7" height="7"/><rect class="cls-2" x="20" y="43" width="7" height="7"/><rect class="cls-2" x="29" y="43" width="7" height="7"/><rect class="cls-2" x="38" y="43" width="7" height="7"/><rect class="cls-2" x="38" y="34" width="7" height="7"/><rect class="cls-2" x="38" y="25" width="7" height="7"/></svg>