<svg id="Capa_1" data-name="Capa 1" xmlns="http://www.w3.org/2000/svg" viewBox="0 0 58 58.36"><defs><style>.cls-1{fill:#d8d8d8;}.cls-2{fill:#2c7656;}</style></defs><title>home high</title><path class="cls-1" d="M57.86,26.63l-8.68-8.06V5.36h-10V9.29L29.18,0,.5,26.63A1,1,0,0,0,1.86,28.1L5.18,25V58.36h48V25L56.5,28.1a1,1,0,0,0,1.36-1.47Z" transform="translate(-0.18)"/><polygon class="cls-2" points="41 7.37 47 7.37 47 16.71 41 11.14 41 7.37"/><path class="cls-2" d="M51.18,56.37h-14V35.3a2.94,2.94,0,0,0-2.94-2.94H24.12a2.94,2.94,0,0,0-2.94,2.94V56.36h-14V23.16l22-20.43L43.46,16l5.72,5.31h0l2,1.86Z" transform="translate(-0.18)"/></svg>