<svg id="Layer_1" data-name="Layer 1" xmlns="http://www.w3.org/2000/svg" viewBox="0 0 512 480.37"><defs><style>.cls-1{fill:#2c7656;}.cls-2{fill:#d8d8d8;}</style></defs><title>ranking high</title><rect class="cls-1" x="6" y="138.42" width="132.08" height="331.72"/><rect class="cls-1" x="192.52" y="203.96" width="131.07" height="266.18"/><rect class="cls-1" x="374.01" y="273.53" width="129.06" height="196.61"/><rect class="cls-1" x="82.28" y="4.33" width="177.28" height="231.9"/><rect class="cls-1" x="219.9" y="143.47" width="218.64" height="92.76"/><path class="cls-2" d="M76.51,196.89a4,4,0,0,0-2.68,1L62.1,206.83a5.58,5.58,0,0,0-2.49,4.67c0,2.58,1.69,5.17,4.17,5.17a3.59,3.59,0,0,0,2.39-.9l3.18-3.18v53.08c0,2.68,3.18,4.08,6.46,4.08s6.46-1.39,6.46-4.08V201.07C82.28,198.48,79.2,196.89,76.51,196.89Z" transform="translate(0 -15.82)"/><path class="cls-2" d="M278.05,331.39H250.42V329c0-10.34,31.51-17.3,31.51-38.77,0-12.62-10.74-20.18-22.27-20.18-11,0-21.37,7-21.37,18.29,0,5.37,2.49,7,5.86,7,4.27,0,6.76-2.39,6.76-4.77,0-6.16,4-8.75,8.85-8.75,6.56,0,9.24,4.77,9.24,8.85,0,14-32,22.47-32,38.37v9.64c0,2.48,3.38,4.08,5.67,4.08h35.39c2.19,0,4.08-2.79,4.08-5.77S280.24,331.39,278.05,331.39Z" transform="translate(0 -15.82)"/><path class="cls-2" d="M452.25,374c4.87-2.29,7.75-8.65,7.75-16.5,0-13.22-8.95-17.79-21-17.79-16.8,0-21.77,10.24-21.77,17.3,0,4.18.89,5.57,6.66,5.57,4.77,0,6.16-2,6.16-5,0-4,2.39-6.66,8.85-6.66,5.37,0,8.75,2.19,8.75,8.75,0,8.55-4.17,9.74-9.14,9.74-2.88,0-3.88,2.58-3.88,5.07s1,5.07,3.88,5.07c6.36,0,10.93,2.09,10.93,9.44v1.89c0,7.55-3.18,10.74-10.64,10.74-6.36,0-10.34-2.78-10.34-7.26,0-3.18-1.39-4.57-6.66-4.57-4.47,0-6.16,1.09-6.16,5.07,0,8,6.56,18.09,22.86,18.09,13.12,0,23.86-6.06,23.86-22.07v-1.89C462.39,380.8,458.11,376.33,452.25,374Z" transform="translate(0 -15.82)"/><path class="cls-2" d="M138.23,147H59.62a7.72,7.72,0,0,0,0,15.44h70.9V480.75H15.44v-326a7.72,7.72,0,1,0-15.44,0V488.47a7.72,7.72,0,0,0,7.72,7.72H138.23a7.72,7.72,0,0,0,7.72-7.72V154.75A7.72,7.72,0,0,0,138.23,147Z" transform="translate(0 -15.82)"/><path class="cls-2" d="M324.82,212.76h-83.6a7.72,7.72,0,0,0,0,15.44H317.1V480.75H202V220.47a7.72,7.72,0,0,0-15.44,0v268a7.72,7.72,0,0,0,7.72,7.72H324.82a7.72,7.72,0,0,0,7.72-7.72v-268A7.72,7.72,0,0,0,324.82,212.76Z" transform="translate(0 -15.82)"/><path class="cls-2" d="M504.28,281.76H373.77a7.72,7.72,0,0,0-7.72,7.72v199a7.72,7.72,0,0,0,7.72,7.72H504.28a7.72,7.72,0,0,0,7.72-7.72v-199A7.72,7.72,0,0,0,504.28,281.76Zm-7.72,199H381.49V297.2H496.57Z" transform="translate(0 -15.82)"/><path class="cls-2" d="M439,153H267.28V23.53a7.72,7.72,0,0,0-7.72-7.72H82.28a7.72,7.72,0,0,0-7.72,7.72v89.1a7.72,7.72,0,0,0,15.44,0V31.25H251.85V160.71a7.72,7.72,0,0,0,7.72,7.72H431.31v84.45a7.72,7.72,0,1,0,15.44,0V160.71A7.72,7.72,0,0,0,439,153Z" transform="translate(0 -15.82)"/></svg>