<svg id="Capa_1" data-name="Capa 1" xmlns="http://www.w3.org/2000/svg" viewBox="0 0 55 55"><defs><style>.cls-1{fill:none;}.cls-2{fill:#2c7656;}</style></defs><title>user high</title><path class="cls-1" d="M55,27.5A27.5,27.5,0,1,0,8.93,47.76l0,0,.89.75.18.14c.47.39,1,.77,1.47,1.13l.49.35q.8.55,1.64,1l.37.21c.61.35,1.24.68,1.88,1l.14.06a27.25,27.25,0,0,0,6.65,2.1l.18,0c.72.13,1.46.22,2.2.29l.27,0c.74.06,1.48.1,2.24.1s1.49,0,2.22-.1l.28,0q1.1-.1,2.18-.29l.19,0a27.25,27.25,0,0,0,6.56-2.06l.23-.1q.93-.44,1.81-.94l.44-.25c.54-.32,1.07-.65,1.58-1l.55-.39c.44-.32.87-.64,1.29-1l.28-.22.92-.76,0,0A27.43,27.43,0,0,0,55,27.5Z"/><path class="cls-2" d="M2,27.5A25.5,25.5,0,1,1,44.41,46.56a7.49,7.49,0,0,0-.89-.54l-8.47-4.23a2.22,2.22,0,0,1-1.23-2v-3c.2-.24.4-.52.62-.82a20.38,20.38,0,0,0,2.62-5.12,3.63,3.63,0,0,0,2.08-3.29V24.07a3.64,3.64,0,0,0-.89-2.37V17a8.07,8.07,0,0,0-1.88-5.86C34.52,9.06,31.54,8,27.5,8s-7,1.07-8.87,3.17A8.07,8.07,0,0,0,16.75,17V21.7a3.64,3.64,0,0,0-.89,2.37v3.55a3.64,3.64,0,0,0,1.34,2.82,18.79,18.79,0,0,0,3.09,6.39v2.89a2.23,2.23,0,0,1-1.16,2L11.23,46a7.23,7.23,0,0,0-.75.48A25.44,25.44,0,0,1,2,27.5Z"/><path class="cls-2" d="M42.46,48.13q-.52.38-1.07.74l-.5.32c-.47.29-1,.57-1.44.83l-.33.17a25.48,25.48,0,0,1-3.49,1.48l-.13,0q-.94.31-1.9.55h0c-.65.16-1.3.29-2,.4h-.05c-.62.1-1.25.17-1.87.23l-.33,0c-.62,0-1.24.08-1.87.08s-1.27,0-1.9-.08l-.33,0c-.63-.06-1.26-.13-1.89-.23h-.08a25.4,25.4,0,0,1-3.89-1l-.12,0q-.94-.32-1.86-.71h0c-.58-.25-1.15-.53-1.7-.82L15.5,50c-.51-.27-1-.57-1.5-.88l-.44-.28c-.45-.3-.9-.61-1.34-.93l-.13-.1.1-.05,7.91-4.31a4.23,4.23,0,0,0,2.2-3.71v-3.6l-.23-.28a16.7,16.7,0,0,1-3-6.22l-.09-.4L18.63,29a1.66,1.66,0,0,1-.77-1.39V24.07a1.63,1.63,0,0,1,.56-1.22l.33-.3v-5.7a6,6,0,0,1,1.4-4.36C21.58,10.84,24.06,10,27.5,10s5.9.83,7.35,2.47a6.12,6.12,0,0,1,1.41,4.38v5.7l.33.3a1.64,1.64,0,0,1,.56,1.22v3.55A1.67,1.67,0,0,1,36,29.19l-.5.15-.16.5a18.5,18.5,0,0,1-2.5,5c-.26.37-.52.7-.74.95l-.25.28v3.7a4.2,4.2,0,0,0,2.34,3.78l8.47,4.23.16.08Z"/></svg>